<svg xmlns="http://www.w3.org/2000/svg" width="262.942" height="262.942" viewBox="0 0 262.942 262.942">
  <path id="Icon_awesome-facebook-square" data-name="Icon awesome-facebook-square" d="M234.77,2.25H28.172A28.172,28.172,0,0,0,0,30.422v206.6a28.172,28.172,0,0,0,28.172,28.172h80.555V175.8H71.752V133.721h36.976v-32.07c0-36.477,21.716-56.626,54.977-56.626a224.009,224.009,0,0,1,32.586,2.841v35.8H177.938c-18.083,0-23.723,11.222-23.723,22.732v27.321h40.369L188.127,175.8H154.214v89.395H234.77a28.172,28.172,0,0,0,28.172-28.172V30.422A28.172,28.172,0,0,0,234.77,2.25Z" transform="translate(0 -2.25)" fill="#fff"/>
</svg>
