<svg xmlns="http://www.w3.org/2000/svg" width="263.001" height="262.942" viewBox="0 0 263.001 262.942">
  <path id="Icon_awesome-instagram" data-name="Icon awesome-instagram" d="M131.525,66.294a67.415,67.415,0,1,0,67.415,67.415A67.308,67.308,0,0,0,131.525,66.294Zm0,111.244a43.829,43.829,0,1,1,43.829-43.829,43.908,43.908,0,0,1-43.829,43.829Zm85.9-114A15.724,15.724,0,1,1,201.7,47.812,15.688,15.688,0,0,1,217.422,63.536ZM262.072,79.5c-1-21.064-5.809-39.722-21.24-55.094C225.46,9.029,206.8,4.218,185.738,3.162c-21.709-1.232-86.777-1.232-108.486,0-21,1-39.663,5.809-55.094,21.181S1.975,58.373.919,79.436c-1.232,21.709-1.232,86.777,0,108.486,1,21.064,5.809,39.722,21.24,55.094s34.03,20.183,55.094,21.24c21.709,1.232,86.777,1.232,108.486,0,21.064-1,39.722-5.809,55.094-21.24,15.372-15.372,20.183-34.03,21.24-55.094,1.232-21.709,1.232-86.718,0-108.427ZM234.026,211.216a44.373,44.373,0,0,1-24.995,24.995c-17.309,6.865-58.379,5.281-77.507,5.281s-60.257,1.525-77.507-5.281a44.373,44.373,0,0,1-24.995-24.995c-6.865-17.309-5.281-58.379-5.281-77.507S22.217,73.452,29.023,56.2A44.373,44.373,0,0,1,54.018,31.207c17.308-6.865,58.379-5.281,77.507-5.281s60.257-1.525,77.507,5.281A44.373,44.373,0,0,1,234.026,56.2c6.865,17.308,5.281,58.379,5.281,77.507S240.891,193.966,234.026,211.216Z" transform="translate(0.005 -2.238)" fill="#fff"/>
</svg>
