<svg xmlns="http://www.w3.org/2000/svg" width="262.942" height="257.706" viewBox="0 0 262.942 257.706">
  <path id="Icon_awesome-twitter-square" data-name="Icon awesome-twitter-square" d="M234.77,2.25H28.172C12.619,2.25,0,14.618,0,29.861V232.345c0,15.244,12.619,27.611,28.172,27.611h206.6c15.554,0,28.172-12.368,28.172-27.611V29.861C262.942,14.618,250.323,2.25,234.77,2.25ZM206.069,93.6c.117,1.611.117,3.279.117,4.89,0,49.873-38.737,107.339-109.52,107.339a110.632,110.632,0,0,1-59.1-16.912,82.732,82.732,0,0,0,9.273.46,78.18,78.18,0,0,0,47.776-16.107,38.456,38.456,0,0,1-35.978-26.173,42.307,42.307,0,0,0,17.373-.69,37.927,37.927,0,0,1-30.814-37.045v-.46a39.06,39.06,0,0,0,17.373,4.774A37.453,37.453,0,0,1,45.428,82.266a36.691,36.691,0,0,1,5.224-19.04A110.048,110.048,0,0,0,130,102.686c-5.458-25.6,14.086-46.364,37.563-46.364A38.722,38.722,0,0,1,195.681,68.23,76.37,76.37,0,0,0,220.1,59.141a37.777,37.777,0,0,1-16.9,20.766,77.83,77.83,0,0,0,22.186-5.867A80.159,80.159,0,0,1,206.069,93.6Z" transform="translate(0 -2.25)" fill="#fff"/>
</svg>
